<svg xmlns="http://www.w3.org/2000/svg" xmlns:xlink="http://www.w3.org/1999/xlink" viewBox="0 0 1610.4 1637.78"><defs><style>.cls-1{fill:#a9e9eb;}.cls-2{fill:#efefef;}.cls-3{fill:#f7807a;}.cls-4{fill:#1d2049;}.cls-5{fill:url(#linear-gradient);}.cls-6{fill:url(#linear-gradient-2);}.cls-7{fill:url(#linear-gradient-3);}.cls-8{fill:url(#linear-gradient-4);}.cls-9{fill:#262859;}.cls-10{fill:#d8533d;}.cls-11{fill:#ec7849;}.cls-12{fill:url(#linear-gradient-5);}.cls-13{fill:url(#linear-gradient-6);}.cls-14{fill:url(#linear-gradient-7);}.cls-15{fill:url(#linear-gradient-8);}.cls-16{fill:url(#linear-gradient-9);}.cls-17{fill:url(#linear-gradient-10);}.cls-18{fill:url(#linear-gradient-11);}.cls-19{fill:url(#linear-gradient-12);}.cls-20{fill:#f1f2f2;}.cls-21{fill:#b5b5e5;}</style><linearGradient id="linear-gradient" x1="-2043.98" y1="638.76" x2="-1686.36" y2="638.76" gradientTransform="translate(-674.08 2000) rotate(180)" gradientUnits="userSpaceOnUse"><stop offset="0" stop-color="#ff956e"/><stop offset="1" stop-color="#e87054"/></linearGradient><linearGradient id="linear-gradient-2" x1="1113.74" y1="473.21" x2="1271.37" y2="838.52" gradientTransform="matrix(1, 0, 0, -1, 0, 2000)" gradientUnits="userSpaceOnUse"><stop offset="0" stop-color="#efefef"/><stop offset="1" stop-color="#b5b5e5"/></linearGradient><linearGradient id="linear-gradient-3" x1="1012.33" y1="864.88" x2="1431.25" y2="864.88" gradientTransform="matrix(1, 0, 0, -1, 0, 2000)" xlink:href="#linear-gradient"/><linearGradient id="linear-gradient-4" x1="-3696.05" y1="1133.32" x2="-3741.19" y2="1182.71" gradientTransform="translate(-2379.12 2075.04) rotate(176.69)" xlink:href="#linear-gradient"/><linearGradient id="linear-gradient-5" x1="1162.59" y1="797.7" x2="1658.86" y2="797.7" xlink:href="#linear-gradient-2"/><linearGradient id="linear-gradient-6" x1="1283.42" y1="1234.77" x2="1317.43" y2="977.35" gradientTransform="matrix(1, 0, 0, -1, 0, 2000)" gradientUnits="userSpaceOnUse"><stop offset="0" stop-color="#ed6845"/><stop offset="1" stop-color="#d8533d"/></linearGradient><linearGradient id="linear-gradient-7" x1="302.5" y1="628.79" x2="680.71" y2="628.79" gradientTransform="matrix(1, 0, 0, -1, 0, 2000)" xlink:href="#linear-gradient"/><linearGradient id="linear-gradient-8" x1="583.36" y1="441.33" x2="446.15" y2="748.43" gradientTransform="matrix(1, 0, 0, -1, 0, 2000)" gradientUnits="userSpaceOnUse"><stop offset="0" stop-color="#454492"/><stop offset="1" stop-color="#33337c"/></linearGradient><linearGradient id="linear-gradient-9" x1="455.09" y1="1049.06" x2="528.78" y2="1306.65" gradientTransform="matrix(1, 0, 0, -1, 0, 2000)" xlink:href="#linear-gradient"/><linearGradient id="linear-gradient-10" x1="506.33" y1="1151.86" x2="303.37" y2="1014.12" gradientTransform="matrix(1, 0, 0, -1, 0, 2000)" xlink:href="#linear-gradient"/><linearGradient id="linear-gradient-11" x1="-3748.61" y1="1469.39" x2="-3693.9" y2="1519.28" gradientTransform="translate(-3434.2 1845.12) rotate(-174.92)" xlink:href="#linear-gradient"/><linearGradient id="linear-gradient-12" x1="530.25" y1="743.56" x2="156.83" y2="781.27" xlink:href="#linear-gradient-8"/></defs><title>Asset 1</title><g id="Layer_2" data-name="Layer 2"><g id="Layer_1-2" data-name="Layer 1"><path class="cls-1" d="M1603.6,770.2c9.2-86.6,12.4-176.6-12.2-261.1-20-68.7-58.3-133.5-115.8-177.2-64.2-48.8-146.6-59.7-224.8-49.7-85.1,10.8-164,44.3-244.6,71.7-41.4,14.1-83.4,26.3-126.6,33.3-42.1,6.7-85,8.7-127.6,8.2-85.6-1.1-170.7-12.6-255.8-20.3-84.7-7.7-170.3-11.7-254.7,1.6-72.3,11.4-149.2,37.5-196,97.1C-2.1,534.4-6.7,615,6.2,688.3,21,772.7,60.8,850,80.5,933.1c20.6,87,6.8,176.6,20.1,264.4,11,72.4,43.6,143.7,110.9,179.3,67.5,35.7,147.7,32.4,221.7,29.9q140.1-4.65,280.1-9.4,60.15-2,120.4-4a12.4,12.4,0,0,0,3.5,3.3,1002.87,1002.87,0,0,0,471.5,152.9c70.9,4.4,150.4,0,210.2-42.8,61.8-44.3,85.4-119.7,87-193,1.9-89-26-175.6-27.6-264.5C1576.6,955.4,1593.8,862.9,1603.6,770.2Z"/><path class="cls-2" d="M544.6,802.2v51.7a30.35,30.35,0,0,0,18.7,28,10.93,10.93,0,0,1,6.7,10.2v27.4a14.55,14.55,0,0,1-11.2,14.2,2.43,2.43,0,0,0,.5,4.8h31.4a2.41,2.41,0,0,0,2.4-2.9,2.59,2.59,0,0,0-1.9-2A14.55,14.55,0,0,1,580,919.4V892a11,11,0,0,1,6.7-10.2,30.35,30.35,0,0,0,18.7-28V802.1H544.6Z"/><path class="cls-3" d="M549,818.1v35A25.91,25.91,0,0,0,574.9,879h0a25.91,25.91,0,0,0,25.9-25.9v-35Z"/><path class="cls-4" d="M1255.4,721.5a4.69,4.69,0,0,0-2.4.3c-2.2-1.1-5.2-.6-5.8,2.5-1.5,8.6.4,16.3,1.2,24.8,1.3,12.9-4.4,19.3-16.3,23.5-2.8,1-4.4,4.8-1.9,7.1,8.7,8,20.2,13.1,32.3,12.2,11.6-.9,17.9-9.3,21.3-19.7C1291,750.5,1279.4,724.7,1255.4,721.5Z"/><path class="cls-4" d="M1239.1,656.9a3.84,3.84,0,0,0-5.8-1.9c-18.4,12-17.8,38.4,1.9,48.8a4.3,4.3,0,0,0,6.2-2.5C1246.3,686.3,1249.8,669.9,1239.1,656.9Z"/><path class="cls-5" d="M1369.9,1116.5s-141.5,151.8-148.4,182.6-81.5,255.4-73.6,271.2,12.7,45.5,3.4,54.8-140.7,11.9-139,0,85.6-34.8,99.2-80.5,41.7-292.6,41.7-292.6l111.9-162.6Z"/><path class="cls-6" d="M1369.9,1116.5l-77.7-20.1-30.2-2.6L1153.2,1252s-28.1,246.9-41.7,292.6c-.1.4-.3.9-.4,1.3,8.3,5.7,21.6,11.2,38,6.3,10.6-57.3,66.5-226.7,72.4-253.2C1228.4,1268.3,1369.9,1116.5,1369.9,1116.5Z"/><path class="cls-7" d="M1260.7,752.5s20.3,28.3-.4,43c-14.8,10.5-64.2,129.6-76.6,128.4s-90.7-83-104.2-83.6-66.6-17.1-67.1-11.2,1.2,40.6,27.7,41.2,27.7-7.7,38.9,2.4,74.2,121.3,108.4,105.4,81.2-87.2,81.2-87.2,1.9,24.7,16,38.3,43.6,50.7,42.4,64.8-5.3,53.6-46.5,62.4-190.2,56-197.9,77.2-10,51.8,10,88.3,135.5,191.4,139,207.9,1.2,59.5-10,71.3-42.4,24.1-28.9,28.9,50.1,2.9,61.8-7.7,17.1-57.7,31.8-68.9,10-29.4-15.9-43.6-48.9-100.7-56-122.5-46.5-96-61.8-107.2c0,0,240.3-13,267.4-75.4,23.8-54.9,2.9-93.1,0-106s-52.4-174.3-61.3-192-56.5-31.2-61.8-68.9Z"/><path class="cls-8" d="M1228.2,686.9c-2.3-34.4,26.6-47.6,26.6-47.6,73.6,2.9,67,57.7,59.1,87.4s-50.2,38.5-66.9,37.5c-12.7-.7-16-17.2-17.2-37.8-2.4-.2-8.2-1.6-8.4-4.1-.2-2.3,5.5-15.2,7.5-19.8C1228.8,697.3,1228.6,692,1228.2,686.9Z"/><path class="cls-9" d="M1286.3,1453.4c14.7-11.2,10-29.4-15.9-43.6a37.52,37.52,0,0,1-3.6-2.4s-3.8,80.8-19.9,87.8a27.37,27.37,0,0,1-21.4-.2,26.75,26.75,0,0,1-3.9,6.1c-11.2,11.8-42.4,24.1-28.9,28.9s50.1,2.9,61.8-7.7S1271.5,1464.6,1286.3,1453.4Z"/><path class="cls-9" d="M1151.3,1625.1c9.3-9.3,4.5-39-3.4-54.8,0,0-26.9,39.8-60.2,37.7-16.6-1-28.2-4-35.6-7.5-20.8,11.3-39.1,19.2-39.9,24.6C1010.6,1637,1142,1634.5,1151.3,1625.1Z"/><path class="cls-10" d="M1487.1,1153.6H1303.6v-19.1a18.52,18.52,0,0,1,18.5-18.5h146.5a18.52,18.52,0,0,1,18.5,18.5Z"/><path class="cls-11" d="M1492.4,1632.8h35l-40.1-455.7h-.3v-23.5H1303.5v23.8h0l-40.1,455.7h35l22.7-257.8a22.43,22.43,0,0,1,22.4-20.5h103.7a22.5,22.5,0,0,1,22.4,20.5Zm-164.8-329.2,9.5-107.7a20.21,20.21,0,0,1,20.1-18.4h76.7a20.14,20.14,0,0,1,20.1,18.4l9.5,107.7a20.27,20.27,0,0,1-20.1,22h-95.6A20.34,20.34,0,0,1,1327.6,1303.6Z"/><path class="cls-12" d="M1420,998.7c-.3-1.3-1.1-4.3-2.3-8.4-27.2,2.2-66.3,5.4-91.1,7.6-1.7,16.4-8.3,50.4-46.2,58.5-41.2,8.8-190.2,56-197.9,77.2s-10,51.8,10,88.3c17.1,31.1,103.5,148.4,130.8,192.4,19.1-4.3,29.1-12,34.1-17.5-20.3-28.9-37.1-91.5-43-109.6-7.1-21.8-46.5-96-61.8-107.2,0,0,240.3-13,267.4-75.4C1443.8,1049.9,1422.9,1011.7,1420,998.7Z"/><path class="cls-13" d="M1420,998.7c-2.9-13-52.4-174.3-61.3-192-5.5-11-26-20.4-42.1-35,5.9-7.1-2.3-19.5-10.8-13.5-12.3,8.7-26,14.5-41.1,16.2-11,1.3-11.3,18.4-.5,17.7a25.43,25.43,0,0,1-3.8,3.4c-11.5,8.2-44.2,82.7-63.9,114.3,6.4,11.4,16.7,25.9,30.8,34.6,22.5-25,41.3-53.5,41.3-53.5s1.9,24.7,16,38.3,43.6,50.7,42.4,64.8a106.32,106.32,0,0,1-3.8,21.7c23.1.5,72.5-.4,97.4-14.7A11.2,11.2,0,0,1,1420,998.7Z"/><circle class="cls-2" cx="1238.5" cy="892" r="4"/><path class="cls-2" d="M1248.9,913.4a4,4,0,0,0-4,4,3.87,3.87,0,0,0,2,3.4c1.7-2.1,3.3-4.2,4.8-6.2A3.78,3.78,0,0,0,1248.9,913.4Z"/><path class="cls-2" d="M1236.3,840.7a4,4,0,0,0,4-4,4,4,0,0,0-3.1-3.9c-1.2,2.2-2.3,4.5-3.5,6.8A3.31,3.31,0,0,0,1236.3,840.7Z"/><circle class="cls-2" cx="1314.29" cy="794.66" r="4"/><path class="cls-2" d="M1409.2,964.6c.3,0,.6-.1.9-.1-.7-2.4-1.5-5-2.3-7.6a3.84,3.84,0,0,0-2.7,4A3.79,3.79,0,0,0,1409.2,964.6Z"/><circle class="cls-2" cx="1287.69" cy="792.1" r="4"/><path class="cls-2" d="M1416.6,991.6a2.77,2.77,0,0,0,1.3-.3c-.6-2.2-1.4-4.7-2.2-7.5a3.92,3.92,0,0,0-3.3,4.1A4,4,0,0,0,1416.6,991.6Z"/><path class="cls-2" d="M1295.7,934.9a4,4,0,0,0-7.6-2c1.6,1.6,3.2,3.4,5,5.4A4.21,4.21,0,0,0,1295.7,934.9Z"/><circle class="cls-2" cx="1239.1" cy="862.4" r="4"/><path class="cls-2" d="M1217.8,880.5a4,4,0,1,0,0-8c-.3,0-.7.1-1,.1-.9,1.8-1.8,3.5-2.7,5.2A4,4,0,0,0,1217.8,880.5Z"/><path class="cls-2" d="M1272.5,892a4,4,0,0,0-8,0,3.77,3.77,0,0,0,1.3,2.9c1.7-2.5,2.7-3.9,2.7-3.9a37.86,37.86,0,0,0,.7,4.9A4.06,4.06,0,0,0,1272.5,892Z"/><circle class="cls-2" cx="1212.6" cy="910.7" r="4"/><circle class="cls-2" cx="1265.4" cy="850.7" r="4"/><path class="cls-2" d="M1220.1,939.3a3.89,3.89,0,0,0,1.6-3.2,4,4,0,0,0-4-4,4.13,4.13,0,0,0-3.4,1.9A71.26,71.26,0,0,0,1220.1,939.3Z"/><circle class="cls-2" cx="1291.7" cy="833.9" r="4"/><circle class="cls-2" cx="1299.2" cy="897.42" r="4"/><circle class="cls-2" cx="1268.08" cy="811.41" r="4"/><path class="cls-2" d="M1329,781.6c-2-1.4-4-2.9-5.9-4.5a4.19,4.19,0,0,0-1.9,3,3.94,3.94,0,0,0,3.6,4.3A3.84,3.84,0,0,0,1329,781.6Z"/><circle class="cls-2" cx="1322.27" cy="939.89" r="4"/><circle class="cls-2" cx="1345.17" cy="911.98" r="4"/><circle class="cls-2" cx="1310.16" cy="859.03" r="4"/><circle class="cls-2" cx="1340.67" cy="876.49" r="4"/><path class="cls-2" d="M1324.2,974.6a4,4,0,0,0-4.2-3.8,3.88,3.88,0,0,0-1.9.6c1.4,2.4,2.8,4.7,3.9,6.9A3.77,3.77,0,0,0,1324.2,974.6Z"/><path class="cls-2" d="M1399.5,933.5a3,3,0,0,0,1-.2c-.8-2.5-1.6-5-2.3-7.6a3.92,3.92,0,0,0-2.8,4A3.87,3.87,0,0,0,1399.5,933.5Z"/><path class="cls-2" d="M1326,1007.5a4,4,0,0,0,3.8-4.2,4,4,0,0,0-3.4-3.7q-.45,3.6-1.2,7.8A2,2,0,0,0,1326,1007.5Z"/><circle class="cls-2" cx="1329.56" cy="828.5" r="4"/><circle class="cls-2" cx="1342.17" cy="956.68" r="4"/><circle class="cls-2" cx="1366.77" cy="929.49" r="4"/><circle class="cls-2" cx="1383.77" cy="968.78" r="4"/><path class="cls-2" d="M1383.6,880.7a4,4,0,0,0,.4,8,3.88,3.88,0,0,0,2.3-.9c-.7-2.4-1.5-4.7-2.2-7.1Z"/><path class="cls-2" d="M1346.4,797.8a3.94,3.94,0,0,0,3.6,4.3,3.86,3.86,0,0,0,3.8-1.9,62,62,0,0,0-5.9-5.1A4.1,4.1,0,0,0,1346.4,797.8Z"/><circle class="cls-2" cx="1359.67" cy="999.59" r="4"/><circle class="cls-2" cx="1354.37" cy="847.88" r="4"/><path class="cls-9" d="M1354.4,746.1c-2.7-9.2-10.1-16.3-14.7-24.5a92.09,92.09,0,0,1-4.6-9.5c-1.2-7.3-1.9-14.7-3.2-21.9-4.2-24.2-16.5-45.6-41.2-53.1-22.6-6.9-46.4,2.4-60.5,20.8a3.24,3.24,0,0,0-.7,3,.6.6,0,0,0-.1.4c1.2,15.4,11.4,27.8,24.9,34.6,10.1,5,26.3,6.5,34.9,15,.2,1.3.4,2.7.5,4.3a111.86,111.86,0,0,0,3.1,19.1c2,7.7,19.1,38.9,1.6,38.9-5.5,0-5.5,8.5,0,8.5h.1c13.7,3.8,34.5,4.5,46.5-5.1,3.6-.2,7.1-2.5,9.5-5.8A29.67,29.67,0,0,0,1354.4,746.1Zm-87.5-47.5c-16.4-4.9-31.6-15.7-35-33a70.42,70.42,0,0,0,19.2,20.4c8.7,6.1,18.1,8.2,28,11.7,6,2.1,8.4,5.5,9.6,10.3C1282.5,703.2,1274.1,700.7,1266.9,698.6Zm83.7,68c-1.5,2.9-4.1,6.1-7.2,7.5a23.93,23.93,0,0,0,5.7-10.4c3.3-12.3-6.1-22.7-9.8-33.7a95.21,95.21,0,0,1-2.9-10.8,100.84,100.84,0,0,0,6.8,11.4c5.1,7.2,10.3,14,10.4,23.3A25.58,25.58,0,0,1,1350.6,766.6Z"/><path class="cls-14" d="M302.5,1130.2s152.9,127.3,160.1,159.4,84.9,266.2,76.7,282.7-13.3,47.4-3.5,57.1,146.7,12.4,144.9,0-89.2-36.2-103.4-83.9-36.2-281.8-36.2-281.8l-135.2-159Z"/><path class="cls-9" d="M680.7,1629.5c-1.7-11.8-81.9-34.2-101.2-78l-40.7,5.8c1.3,7.8,1.6,13.1.6,15.1-8.2,16.5-13.3,47.4-3.5,57.1C545.5,1639.2,682.4,1641.8,680.7,1629.5Z"/><path class="cls-15" d="M585,1561.3a55.9,55.9,0,0,1-7.7-15.7c-14.1-47.7-36.2-281.8-36.2-281.8L406.1,1105l-.9-.1-102.7,25.4s152.9,127.3,160.1,159.4c6.8,30.6,77.6,244.2,77.3,278.9h0C539.9,1568.5,571.5,1579.3,585,1561.3Z"/><path class="cls-16" d="M363.1,723s-18.1,33.5-26.9,36.6-42,17.7-62.7,69-35,161.8-34.5,199.5,16.5,111.9,93.1,120.2,188.4,33.8,188.4,33.8-81.2,234.2-94.7,240.7-29.4,21.2-28.9,38.9,36.5,26.5,43,40.1,49.5,39.5,61.8,35.3-.6-18.3-13.5-40.1-22.4-30-11.8-56,159-272.1,136.1-306.9S381,1062.2,374,1046.9s8.8-248.5,13.5-262.7S414,734.1,414,734.1Z"/><path class="cls-17" d="M364.4,781.9s24.1-3.5,34.2,26.5,33,178.5,40.6,169.6,94.8-84.8,98.4-102.5,13.5-51.2,17.7-37.7-7.1,34.2,4.7,27.1,43-33,47.7-20.6,1.2,57.1-10,57.7-29.4-3.5-35.9,2.9S463.4,1076.3,424,1052.7c-39.6-23.4-56.7-81.7-56.7-81.7Z"/><path class="cls-18" d="M400,620.1s47.2-1.8,55.2,50.7c.5,3.1.8,6,1.2,8.9,3.1,7.6,12.4,31,10.5,32.6s-8.3,2.4-10.3,2.6c-2.8,25.1-11.7,39.3-18,41.2-9.3,2.8-78.1-2.7-89-56.1S355.3,620.9,400,620.1Z"/><path class="cls-9" d="M383.5,619.4c14.4-5.8,21.8-6.1,37.5-4.7a58.39,58.39,0,0,1,11.9,2.4,7.85,7.85,0,0,0,6.2-.4h0c5.9-3,12.2-5.4,18.6-.5,7,5.4,6.2,19.7-.2,26a10.92,10.92,0,0,0-1.3,1.7c-4.3,8.1-7.1,4.2-15.7,4.9-6.6.5-12.3,1.7-17.1,6.5-4.5,4.5-8.1,10.4-11.2,15.9-6.7,11.8-9.1,25.8.6,36.8a27.39,27.39,0,0,0,16.8,8.6c6.5.8,12.4-1.9,18.8-2,4.6-.1,8.1-.4,8.9,4.3.9,5.9-.6,8.9-2.9,13.7-3.2,6.4-5.5,13.1-9.2,19.3-2.5,4.2-3.2,5.4-8.3,6.9a20.4,20.4,0,0,1-16.3-1.7c-5.9-3.3-9.6-3.4-15-7.6-9.3-7.2-17-16.5-20.2-28-2-7.3-2-14.9-3-22.3-.3-2.4-.7-6.2-3.1-7.6-3.4-1.9-6.6,2.7-7.7,5.4-5,11.7-.9,26.9-13.1,35-2.3,1.5-6.5.3-5.9-3.1,2.6-16.1-7.8-29.9-9.1-45.2-1.2-14.8-.3-31.4,8.6-43.1C361.2,628.8,370,624.9,383.5,619.4Z"/><path class="cls-9" d="M483.3,1427l-39.6-27.2s-2.2.5-5.7,1.4c-5.7,12.5-10.1,20.5-12.4,21.6-13.5,6.5-29.4,21.2-28.9,38.9s36.5,26.5,43,40.1,49.5,39.5,61.8,35.3-.6-18.3-13.5-40.1-22.4-30-11.8-56C477.4,1438.4,479.8,1433.6,483.3,1427Z"/><path class="cls-10" d="M394,1152H210.5v-19.1a18.52,18.52,0,0,1,18.5-18.5H375.5a18.52,18.52,0,0,1,18.5,18.5Z"/><path class="cls-11" d="M399.3,1631.3h35l-40-455.8H394V1152H210.5v23.8h0l-40.1,455.7h35l22.7-257.8a22.43,22.43,0,0,1,22.4-20.5H354.3a22.5,22.5,0,0,1,22.4,20.5ZM234.5,1302l9.5-107.7a20.21,20.21,0,0,1,20.1-18.4h76.7a20.14,20.14,0,0,1,20.1,18.4l9.4,107.7a20.27,20.27,0,0,1-20.1,22H254.6A20.15,20.15,0,0,1,234.5,1302Z"/><path class="cls-19" d="M568.4,1268.2c30.4-61.2,54.2-118.5,43.9-134-23-34.7-231.5-71.9-238.5-87.2a23.81,23.81,0,0,1-1.2-6.3c-26.3-1.3-104.2-4.8-133.2-2.4,3.2,39.5,22.4,102.5,92.6,110,76.6,8.2,188.4,33.8,188.4,33.8s-68.8,198.5-90.3,235.1a56.76,56.76,0,0,0,8.8,8.9c8.2,7.7,20.2,17.2,34.5,23.5.3-1.1.7-2.2,1-3.4,9.5,3.9,16.6,6.1,16.6,6.1Z"/><path class="cls-2" d="M513.4,906.8c-27.4,28.6-69,65.3-74.2,71.3-7.7,8.8-30.6-139.6-40.6-169.6-3.1-9.3-7.5-15.3-12.2-19.3v-.3c.2,0,.3.1.5.1,16.4,4.7,23.4-20.9,7-25.6a174.21,174.21,0,0,1-45.7-20.6c-12.7-8-24.5,8.6-17.5,19-12.9,6-39.7,23-57.4,66.8-20.8,51.2-35,161.8-34.5,199.5a160.71,160.71,0,0,0,2.5,25.8c49.1,14.5,132.4-7,132.4-7-2.1-4.6-2.2-29-1.1-61.1,7.8,18.9,24.3,51,51.1,67,29,17.3,86.1-66.9,117.1-115.5C522.1,932.8,515.6,917.1,513.4,906.8Z"/><path class="cls-11" d="M1173.1,1045.5v-16.2a16.77,16.77,0,0,0-16.8-16.8H541.6a16.77,16.77,0,0,0-16.8,16.8v16.2a16.77,16.77,0,0,0,16.8,16.8H792.4a20.53,20.53,0,0,1,20.5,20.5v475.7a20.53,20.53,0,0,1-20.5,20.5H729.9a13,13,0,0,0-13,13v26.6a13,13,0,0,0,13,13h238a13,13,0,0,0,13-13V1592a13,13,0,0,0-13-13H905.4a20.53,20.53,0,0,1-20.5-20.5V1082.8a20.53,20.53,0,0,1,20.5-20.5h250.9A16.77,16.77,0,0,0,1173.1,1045.5Z"/><path class="cls-2" d="M1005.2,876.2v51.7a30.35,30.35,0,0,0,18.7,28,10.93,10.93,0,0,1,6.7,10.2v27.4a14.55,14.55,0,0,1-11.2,14.2,2.43,2.43,0,0,0,.5,4.8h31.4a2.41,2.41,0,0,0,2.4-2.9,2.59,2.59,0,0,0-1.9-2,14.55,14.55,0,0,1-11.2-14.2V966a11,11,0,0,1,6.7-10.2,30.35,30.35,0,0,0,18.7-28V876.1h-60.8Z"/><path class="cls-3" d="M1009.6,892.1v35a25.91,25.91,0,0,0,25.9,25.9h0a25.91,25.91,0,0,0,25.9-25.9v-35Z"/><rect class="cls-20" x="840.3" y="815.3" width="16.7" height="126.2"/><rect class="cls-20" x="797" y="815.3" width="16.7" height="126.2"/><rect class="cls-20" x="883.63" y="815.34" width="16.7" height="126.2"/><path class="cls-21" d="M899.4,934.4H798.5a15.19,15.19,0,0,0-15.2,15.2h0a15.19,15.19,0,0,0,15.2,15.2h27a14.4,14.4,0,0,1,14.4,14.4v33.3h18V979.2a14.4,14.4,0,0,1,14.4-14.4h27a15.19,15.19,0,0,0,15.2-15.2h0A15,15,0,0,0,899.4,934.4Z"/><path class="cls-3" d="M805.3,790.8c-1.8,7.7-8.3,10.2-8.3,16a10.3,10.3,0,0,0,.6,3.5c2.5,7.2,12.9,7.2,15.4,0a10.3,10.3,0,0,0,.6-3.5C813.6,801,807.1,798.5,805.3,790.8Z"/><path class="cls-3" d="M848.6,790.8c-1.8,7.7-8.3,10.2-8.3,16a10.3,10.3,0,0,0,.6,3.5c2.5,7.2,12.9,7.2,15.4,0a10.3,10.3,0,0,0,.6-3.5C856.9,801,850.5,798.5,848.6,790.8Z"/><path class="cls-3" d="M892,790.8c-1.8,7.7-8.3,10.2-8.3,16a10.3,10.3,0,0,0,.6,3.5c2.5,7.2,12.9,7.2,15.4,0a10.3,10.3,0,0,0,.6-3.5C900.3,801,893.8,798.5,892,790.8Z"/><rect class="cls-3" x="843.3" width="11.3" height="530.9"/><circle class="cls-2" cx="850.7" cy="568.2" r="29.4"/><path class="cls-3" d="M879.5,496.9A34.19,34.19,0,0,0,849,478.1h0a34.19,34.19,0,0,0-30.5,18.8l-26.9,53.4a12.35,12.35,0,0,0,11,17.9h92.8a12.31,12.31,0,0,0,11-17.9Z"/></g></g></svg>